<?xml version="1.0" encoding="UTF-8"?>
<svg
    width="64"
    height="64"
    viewBox="0 0 64 64"
    fill="none"
    xmlns="http://www.w3.org/2000/svg">
    <defs>
        <linearGradient id="bg" x1="10" y1="6" x2="54" y2="58" gradientUnits="userSpaceOnUse">
            <stop stop-color="#0EA5E9"/>
            <stop offset="1" stop-color="#1D4ED8"/>
        </linearGradient>
        <linearGradient id="sun" x1="20" y1="16" x2="40" y2="36" gradientUnits="userSpaceOnUse">
            <stop stop-color="#FCD34D"/>
            <stop offset="1" stop-color="#F97316"/>
        </linearGradient>
    </defs>
    <rect x="4" y="4" width="56" height="56" rx="18" fill="url(#bg)"/>
    <rect x="4.5" y="4.5" width="55" height="55" rx="17.5"
          stroke="white" stroke-opacity="0.65" stroke-width="1"/>

    <!-- Sun -->
    <circle cx="24" cy="22" r="9" fill="url(#sun)"/>
    <circle cx="24" cy="22" r="9.8" stroke="white" stroke-opacity="0.35" stroke-width="1"/>

    <!-- Cloud -->
    <path
        d="M24 38C24 33.6 27.6 30 32 30C35.1 30 37.7 31.7 39 34.3C39.7 34.1 40.4 34 41.1 34C44.5 34 47.3 36.8 47.3 40.2C47.3 43.6 44.5 46.4 41.1 46.4H29.4C26.3 46.4 24 44.1 24 41V38Z"
        fill="white"
        fill-opacity="0.96"/>
    <path
        d="M32 31.5C28.5 31.5 25.7 34.4 25.7 37.9V40.9C25.7 42.7 27.1 44.1 28.9 44.1H40.9C43 44.1 44.7 42.5 44.7 40.4C44.7 38.3 43 36.6 40.9 36.6C40.4 36.6 39.9 36.7 39.4 36.9L38.4 37.3L38 36.3C37.1 33.9 34.8 31.5 32 31.5Z"
        fill="#E5E7EB"
        fill-opacity="0.96"/>

    <!-- Raindrops -->
    <path d="M32 47L30.5 50.5" stroke="#60A5FA" stroke-width="1.5" stroke-linecap="round"/>
    <path d="M36 47.5L34.5 51" stroke="#60A5FA" stroke-width="1.5" stroke-linecap="round"/>
    <path d="M40 47L38.5 50.5" stroke="#60A5FA" stroke-width="1.5" stroke-linecap="round"/>
</svg>

